# xmcd
#
# Track frame offsets:
#	150
#	18050
#	34577
#	59166
#	78180
#	93010
#	112986
#	131360
#	149768
#	171996
#	186666
#	201706
#	219157
#
# Disc length: 3428 seconds
#
# Revision: 0
# Processed by: cddbd v1.5.1PL2 Copyright (c) Steve Scherf et al.
# Submitted via: dBpowerAMP V4.0
#
DISCID=b90d620d
DTITLE=Paulo Gonzo - Paulo Gonzo
DYEAR=2005
DGENRE=Blues
TTITLE0=Falamos Depois
TTITLE1=Males D'Amor (Sempre tão Fatais)
TTITLE2=Desta Margem
TTITLE3=Sem Pressa (Este Lugar)
TTITLE4=She
TTITLE5=Fico até Adormeceres
TTITLE6=Sei-te de Cor
TTITLE7=Faz-me Bem
TTITLE8=Aperta um Pouco Mais
TTITLE9=Honets I Do
TTITLE10=Bright Lights, Big City
TTITLE11=Estranha Forma de Vida
TTITLE12=Falamos Depois (Convidado Especial - Rui Veloso)
EXTD=
EXTT0=
EXTT1=
EXTT2=
EXTT3=
EXTT4=
EXTT5=
EXTT6=
EXTT7=
EXTT8=
EXTT9=
EXTT10=
EXTT11=
EXTT12=
PLAYORDER=
